<?xml version="1.0" encoding="UTF-8"?>
<svg viewBox="0 0 424.83 401.14" xmlns="http://www.w3.org/2000/svg">
<path d="M424.75,116.61c.54-10.31-1.5-20.84-6.06-31.29-.16-.37-.33-.73-.51-1.09-10.78-21.56-31.34-33.43-57.89-33.43-17.87,0-32.87,5.55-43.87,15.93l3.11-26.62c.66-5.65-.8-11.34-4.11-15.97-11.28-15.79-28.02-24.14-48.42-24.14-6.5,0-13.16,1.55-20.35,4.74-.16,.07-.33,.14-.49,.22-12.93,6.09-22.97,17.13-29.83,32.81-.79,1.71-1.5,3.45-2.16,5.21C207.8,15.74,187.33,0,156.69,0c-32.44,0-48.55,15.79-56.37,29.18-5.93,9.72-8.64,19.91-8.09,30.3-9.56-5.77-19.79-8.72-30.59-8.72h0c-6.12,0-12.36,.98-18.54,2.91-.06,.02-.11,.03-.17,.06-17.78,5.7-29.85,15.35-35.9,28.69C3.03,90.55,.69,99.61,.05,109.35c-.04,.5-.05,1-.05,1.5v164.22c0,9.66,2.47,19.22,7.35,28.42,9.88,20.12,28.17,31.19,51.57,31.19,17.85,0,30.18-5.41,38.5-11.67v12.5c-7.03,3.91-11.78,11.41-11.78,20.02v7.62c0,12.65,10.25,22.9,22.9,22.9h8.31c.99,0,1.98-.06,2.96-.19,4.99-.65,8.73-1.15,11.22-1.5,.38-.05,.74-.11,1.07-.15,.52,.11,1.21,.26,2.07,.47,.75,.19,1.51,.34,2.28,.45,4.27,.61,8.39,.92,12.26,.92h9.7c3.3,0,6.44-.72,9.27-1.97,10.82,11.08,25.33,17.06,42.06,17.06,29.89,0,44.49-12.47,51.52-23.21,1.3-1.87,2.44-3.87,3.47-5.96,2.88,2.52,6.08,4.81,9.6,6.81,9.03,5.23,18.45,7.88,28.01,7.88,6.95,0,13.25-.93,18.88-2.76,.2,.11,.4,.21,.61,.32,3.22,1.62,6.75,2.44,10.3,2.44,2.05,0,4.1-.27,6.11-.83l32.55-9c1.43-.39,2.81-.92,4.13-1.58l2.77-1.39c5.87-2.94,10.21-8.26,11.89-14.6,1.69-6.35,.57-13.12-3.08-18.58l-2.77-4.16c-1.89-2.85-4.39-5.12-7.21-6.83,.71-.12,1.43-.23,2.14-.42,17.08-4.56,30.45-15.4,38.69-31.34,.05-.09,.09-.17,.13-.27,5.37-10.74,7.81-21.84,7.26-33.02V116.61Z" fill="#f8e9f1"/>
<path d="M22.9,110.85c.46-6.93,2.08-13.16,4.85-18.7,3.23-7.38,10.62-12.92,22.16-16.62,14.77-4.61,28.4-.69,40.86,11.77,7.38,7.39,10.15,15.94,8.31,25.63-1.85,9.69-7.86,14.54-18.01,14.54s-16.86-3.92-20.09-11.77c-2.32-6.93-1.85-12.23,1.38-15.93,4.61-3.69,6.93-7.62,6.93-11.78,0-6.46-3.24-9.7-9.7-9.7-4.62,0-7.39,2.32-8.31,6.93-.93,2.32-1.16,4.62-.7,6.93v191.92c0,10.16,.92,16.62,2.77,19.39,1.38,2.32,3.92,3.46,7.62,3.46,2.77,0,4.61-1.15,5.54-3.46,1.84-3.23,2.77-9.7,2.77-19.39v-77.61c18.92-6.46,27.7-11.08,26.32-13.85v87.99c0,7.86-2.54,14.55-7.62,20.09-6.47,7.39-16.17,11.08-29.09,11.08-14.78,0-25.17-6.23-31.17-18.71-3.24-5.99-4.85-12-4.85-18V110.85Z" fill="#e288b6"/>
<path d="M222.82,136.11c3.69,3.71,5.77,8.31,6.23,13.86,.46,5.54-.93,10.16-4.16,13.85-3.24,4.62-8.08,6.93-14.55,6.93-9.7,0-16.62-3.47-20.78-10.39-.46-.92-1.16-2.08-2.08-3.47-.93-1.84-1.62-3-2.07-3.46-1.39-2.3-3.01-3.46-4.85-3.46-10.63,0-19.16,5.54-25.62,16.63-3.24,5.08-5.32,10.39-6.23,15.93v165.4c0,5.08,2.08,7.62,6.23,7.62h3.46v7.62h-9.69c-2.77,0-5.78-.23-9.01-.69-3.7-.92-6.47-1.38-8.31-1.38,.92,0-3.93,.69-14.54,2.08h-8.31v-7.62h6.23c2.77,0,4.61-.92,5.54-2.77V187.37c0-6-1.62-9.01-4.85-9.01-1.85,0-3.46,.7-4.84,2.08l-3.46-3.46v-2.77l38.09-23.55h1.39l2.08,1.39c.45-.91,.45,5.09,0,18.01,3.22-7.37,8.07-14.77,14.54-22.16,12.92-13.85,27.46-20.31,43.64-19.39,6.46,.46,11.77,3,15.93,7.61" fill="#e288b6"/>
<path d="M220.19,266.63l-.07,59.68v25.64h0s0,8.27,0,8.27c-.46,3.24-3.01,4.85-7.62,4.85s-7.62-2.77-9.01-8.31c-.93-2.77-1.16-5.54-.69-8.31v-81.58l-.03-62.33c-5.81-1.41-10.23-4.56-13.2-9.52-.46-.92-1.16-2.08-2.08-3.47-.93-1.83-1.62-3-2.07-3.46-1.39-2.3-3.01-3.46-4.85-3.46-2.54,0-4.96,.34-7.26,.97v94.76l-.29,63.24c.46,6.01,2.31,11.78,5.55,17.32,6.92,11.55,17.31,17.31,31.16,17.31,16.16,0,27.01-4.38,32.56-13.16,3.69-5.07,5.54-12.69,5.54-22.85v-62.29c-17.27-5.9-26.47-10.33-27.64-13.3" fill="#fff"/>
<path d="M290.55,90.78h-8.31c0-9.23-1.16-20.09-3.46-32.55-3.24-20.31-7.86-30.47-13.85-30.47s-9.01,5.31-9.01,15.93c0,3.23,.23,7.62,.69,13.16,.46,5.54,.69,8.78,.69,9.69,.46,6.93,9.7,28.87,27.71,65.8,9.23,18.94,13.16,34.63,11.78,47.1v45.09c0,15.7-5.78,26.56-17.32,32.55-5.54,2.77-11.08,4.16-16.62,4.16-11.08,0-20.33-3.46-27.7-10.39-3.7-3.22-6.23-6.46-7.62-9.7v-53.67c17.08,0,25.63-6,25.63-18v75.14c0,2.31,.23,4.39,.69,6.23,.92,4.16,3.23,6.23,6.93,6.23s6.23-1.61,7.62-4.85c.46-1.38,.7-2.77,.7-4.16v-65.17c0-12.92-8.31-35.09-24.94-66.49-13.4-27.24-15.7-50.33-6.92-69.26,4.61-10.62,10.84-17.77,18.7-21.47,4.16-1.84,7.85-2.77,11.08-2.77,12.92,0,22.85,4.85,29.78,14.55l-6.23,53.33Z" fill="#e288b6"/>
<path d="M321.04,186.9c0-6.46-1.85-9.7-5.54-9.7-1.39,.46-3.01,1.15-4.85,2.07l-3.46-2.77v-3.46l38.78-23.55,1.39-.69,2.08,2.08c.04,.19,.45,4.16,0,18.01v167.16c0,3.24,.92,6.23,2.77,9.01,1.84,3.23,3.92,4.84,6.23,4.84l6.23-.69,2.77,4.16-2.77,1.38-32.55,9c-1.85-.93-4.62-4.39-8.31-10.38-.47,1.85-1.62,3.7-3.46,5.54-4.16,3.22-10.16,4.85-18.01,4.85-5.54,0-11.08-1.62-16.62-4.85-10.63-6-15.93-15.24-15.93-27.71v-23.24c0-7.38,1.61-14.54,4.85-21.47,6.46-14.31,17.54-21.47,33.25-21.47,6.92,0,11.31,1.16,13.16,3.47v-81.59Zm0,161.62v-68.96c0-5.99-3.7-9-11.08-9-1.85,0-3.7,.46-5.54,1.38-4.16,1.85-6.23,5.09-6.23,9.7v66.19c0,1.85,.69,3.7,2.08,5.54,2.31,2.31,5.3,3.46,9.01,3.46,7.84,0,11.77-2.77,11.77-8.31" fill="#e288b6"/>
<path d="M156.69,22.9c-17.55,0-29.78,6.01-36.71,18.01-3.7,6-5.31,12.01-4.85,18.01l-.33,82.36,29.75-18.19c1.58-10.5,9.52-18.64,23.91-24.39,8.31-3.22,16.62-5.3,24.93-6.23v-30.08c0-26.32-12.24-39.48-36.71-39.48m5.54,12.47v61.94c-7.4,3.7-13.63,8.55-18.7,14.55V35.37c0-5.99,3.23-9,9.7-9,3.69,0,6.23,1.39,7.62,4.16,.46,.93,.92,2.08,1.38,3.46v1.38Z" fill="#fff"/>
<path d="M397.69,94.47c-6.93-13.85-19.39-20.78-37.4-20.78s-29.55,6.93-36.02,20.78c-3.7,7.39-5.31,14.55-4.85,21.47v24.93l25.62-15.75v-32.04c.46-1.84,1.39-3.91,2.77-6.23,2.3-3.7,5.99-5.55,11.08-5.55,5.54,0,9.46,1.85,11.78,5.55,1.39,2.32,2.08,4.39,2.08,6.23v214.04c10.82-2.89,18.92-9.42,24.24-19.72,3.69-7.38,5.31-14.77,4.85-22.17V115.95c.46-6.93-.93-14.08-4.15-21.47" fill="#fff"/>
</svg>
